# Blender v2.91.0 OBJ File: 'call center.blend'
# www.blender.org
mtllib portadoc beige.mtl
o Cube.012_Cube.003
v 1.983107 1.191489 -0.391699
v 1.983107 1.419275 -0.391699
v 1.983107 1.191489 -0.746965
v 1.983107 1.419275 -0.746965
v 2.176435 1.191489 -0.391699
v 2.176435 1.419275 -0.391699
v 2.176435 1.191489 -0.746965
v 2.176435 1.419275 -0.746965
vt 0.950068 0.265305
vt 0.950068 0.767147
vt 0.048172 0.767147
vt 0.048172 0.265305
vt 0.557843 0.434421
vt 0.685159 0.434421
vt 0.685159 0.561737
vt 0.557843 0.561737
vt 0.375000 0.500000
vt 0.625000 0.500000
vt 0.625000 0.750000
vt 0.375000 0.750000
vt 0.563597 0.434621
vt 0.686900 0.434621
vt 0.686900 0.557923
vt 0.563597 0.557923
vt 0.125000 0.500000
vt 0.125000 0.750000
vt 0.707816 0.611643
vt 0.802124 0.611643
vt 0.802124 0.705951
vt 0.707816 0.705951
vn -1.0000 0.0000 0.0000
vn 0.0000 0.0000 -1.0000
vn 1.0000 0.0000 0.0000
vn 0.0000 0.0000 1.0000
vn 0.0000 -1.0000 0.0000
vn 0.0000 1.0000 0.0000
usemtl portadoc_marrone.001
s off
f 1/1/1 2/2/1 4/3/1 3/4/1
f 3/5/2 4/6/2 8/7/2 7/8/2
f 7/9/3 8/10/3 6/11/3 5/12/3
f 5/13/4 6/14/4 2/15/4 1/16/4
f 3/17/5 7/9/5 5/12/5 1/18/5
f 8/19/6 4/20/6 2/21/6 6/22/6
